<svg width="1028" height="1028" viewBox="0 0 1028 1028" fill="none" xmlns="http://www.w3.org/2000/svg">
<rect width="1028" height="1028" rx="100" fill="url(#paint0_linear_1_3)"/>
<path d="M514 172C585.317 172.085 653.689 200.462 704.118 250.908C754.547 301.354 782.915 369.75 783 441.091C783 671.337 538.454 845.252 528.042 852.538C523.924 855.415 519.023 856.958 514 856.958C508.977 856.958 504.076 855.415 499.958 852.538C489.546 845.252 245 671.337 245 441.091C245.085 369.75 273.453 301.354 323.882 250.908C374.311 200.462 442.683 172.085 514 172ZM404.5 539C383.789 539 367 555.789 367 576.5C367 597.211 383.789 614 404.5 614H604.5C625.211 614 642 597.211 642 576.5C642 555.789 625.211 539 604.5 539H404.5ZM404.5 419C383.789 419 367 435.789 367 456.5C367 477.211 383.789 494 404.5 494H604.5C625.211 494 642 477.211 642 456.5C642 435.789 625.211 419 604.5 419H404.5ZM404.5 299C383.789 299 367 315.789 367 336.5C367 357.211 383.789 374 404.5 374H604.5C625.211 374 642 357.211 642 336.5C642 315.789 625.211 299 604.5 299H404.5Z" fill="white"/>
<defs>
<linearGradient id="paint0_linear_1_3" x1="1028" y1="514" x2="0" y2="514" gradientUnits="userSpaceOnUse">
<stop stop-color="#95D7AB"/>
<stop offset="0.600962" stop-color="#42ADB1"/>
<stop offset="1" stop-color="#269F95"/>
</linearGradient>
</defs>
</svg>
