<svg width="637" height="811" viewBox="0 0 637 811" fill="none" xmlns="http://www.w3.org/2000/svg">
<path d="M318.5 0C402.941 0.100217 483.894 33.7 543.603 93.4287C603.311 153.157 636.9 234.138 637 318.607C637 591.222 347.454 797.141 335.126 805.768C330.25 809.174 324.447 811 318.5 811C312.553 811 306.75 809.174 301.874 805.768C289.546 797.141 0.000187226 591.222 0 318.607C0.100191 234.138 33.6888 153.157 93.3975 93.4287C153.106 33.7001 234.059 0.100224 318.5 0ZM183.5 459C162.789 459 146 475.789 146 496.5C146 517.211 162.789 534 183.5 534H437.5C458.211 534 475 517.211 475 496.5C475 475.789 458.211 459 437.5 459H183.5ZM183.5 324C162.789 324 146 340.789 146 361.5C146 382.211 162.789 399 183.5 399H437.5C458.211 399 475 382.211 475 361.5C475 340.789 458.211 324 437.5 324H183.5ZM183.5 192C162.789 192 146 208.789 146 229.5C146 250.211 162.789 267 183.5 267H437.5C458.211 267 475 250.211 475 229.5C475 208.789 458.211 192 437.5 192H183.5Z" fill="white"/>
</svg>
