<svg width="1028" height="1028" viewBox="0 0 1028 1028" fill="none" xmlns="http://www.w3.org/2000/svg">
<rect width="1028" height="1028" rx="100" fill="url(#paint0_linear_1_3)"/>
<path d="M513.5 108C597.941 108.1 678.894 141.7 738.603 201.429C798.311 261.157 831.9 342.138 832 426.607C832 699.222 542.454 905.141 530.126 913.768C525.25 917.174 519.447 919 513.5 919C507.553 919 501.75 917.174 496.874 913.768C484.546 905.141 195 699.222 195 426.607C195.1 342.138 228.689 261.157 288.397 201.429C348.106 141.7 429.059 108.1 513.5 108ZM378.5 567C357.789 567 341 583.789 341 604.5C341 625.211 357.789 642 378.5 642H632.5C653.211 642 670 625.211 670 604.5C670 583.789 653.211 567 632.5 567H378.5ZM378.5 432C357.789 432 341 448.789 341 469.5C341 490.211 357.789 507 378.5 507H632.5C653.211 507 670 490.211 670 469.5C670 448.789 653.211 432 632.5 432H378.5ZM378.5 300C357.789 300 341 316.789 341 337.5C341 358.211 357.789 375 378.5 375H632.5C653.211 375 670 358.211 670 337.5C670 316.789 653.211 300 632.5 300H378.5Z" fill="white"/>
<defs>
<linearGradient id="paint0_linear_1_3" x1="1028" y1="514" x2="0" y2="514" gradientUnits="userSpaceOnUse">
<stop stop-color="#95D7AB"/>
<stop offset="0.600962" stop-color="#42ADB1"/>
<stop offset="1" stop-color="#269F95"/>
</linearGradient>
</defs>
</svg>
